<?xml version="1.0" encoding="UTF-8" standalone="no"?>
<!DOCTYPE svg PUBLIC "-//W3C//DTD SVG 1.1//EN"
 "http://www.w3.org/Graphics/SVG/1.1/DTD/svg11.dtd">
<!-- Generated by graphviz version 2.26.3 (20100126.1600)
 -->
<!-- Title: G Pages: 1 -->
<svg width="437pt" height="1946pt"
 viewBox="0.00 0.00 437.00 1946.00" xmlns="http://www.w3.org/2000/svg" xmlns:xlink="http://www.w3.org/1999/xlink">
<g id="graph1" class="graph" transform="scale(1 1) rotate(0) translate(4 1942)">
<title>G</title>
<polygon fill="white" stroke="white" points="-4,5 -4,-1942 434,-1942 434,5 -4,5"/>
<g id="graph2" class="cluster"><title>cluster_picoMapper</title>
<polyline fill="none" stroke="gray" points="20,-44 409,-44 "/>
<path fill="none" stroke="gray" d="M409,-44C415,-44 421,-50 421,-56"/>
<polyline fill="none" stroke="gray" points="421,-56 421,-1918 "/>
<path fill="none" stroke="gray" d="M421,-1918C421,-1924 415,-1930 409,-1930"/>
<polyline fill="none" stroke="gray" points="409,-1930 20,-1930 "/>
<path fill="none" stroke="gray" d="M20,-1930C14,-1930 8,-1924 8,-1918"/>
<polyline fill="none" stroke="gray" points="8,-1918 8,-56 "/>
<path fill="none" stroke="gray" d="M8,-56C8,-50 14,-44 20,-44"/>
<text text-anchor="middle" x="214.5" y="-1916.1" font-family="Times Roman,serif" font-size="11.00" fill="gray">picoMapper</text>
</g>
<g id="graph3" class="cluster"><title>cluster_picoMapper\Validators</title>
<polyline fill="none" stroke="gray" points="209,-1232 401,-1232 "/>
<path fill="none" stroke="gray" d="M401,-1232C407,-1232 413,-1238 413,-1244"/>
<polyline fill="none" stroke="gray" points="413,-1244 413,-1888 "/>
<path fill="none" stroke="gray" d="M413,-1888C413,-1894 407,-1900 401,-1900"/>
<polyline fill="none" stroke="gray" points="401,-1900 209,-1900 "/>
<path fill="none" stroke="gray" d="M209,-1900C203,-1900 197,-1894 197,-1888"/>
<polyline fill="none" stroke="gray" points="197,-1888 197,-1244 "/>
<path fill="none" stroke="gray" d="M197,-1244C197,-1238 203,-1232 209,-1232"/>
<text text-anchor="middle" x="305" y="-1886.1" font-family="Times Roman,serif" font-size="11.00" fill="gray">Validators</text>
</g>
<!-- \\picoMapper\\Validators\\NumericValidator -->
<g id="node3" class="node"><title>\\picoMapper\\Validators\\NumericValidator</title>
<a xlink:href="db_validators_numeric.html" xlink:title="NumericValidator" target="_parent">
<polygon fill="none" stroke="black" points="367,-1870 243,-1870 243,-1834 367,-1834 367,-1870"/>
<text text-anchor="middle" x="305" y="-1849.1" font-family="Courier,monospace" font-size="11.00">NumericValidator</text>
</a>
</g>
<!-- \\picoMapper\\BaseValidator -->
<g id="node36" class="node"><title>\\picoMapper\\BaseValidator</title>
<a xlink:href="db_validator.html" xlink:title="«abstract»&lt;br/&gt;BaseValidator" target="_parent">
<polygon fill="none" stroke="black" points="121,-1573 17,-1573 17,-1537 121,-1537 121,-1573"/>
<text text-anchor="start" x="35" y="-1560.43" font-family="Courier,monospace" font-size="11.00">«abstract»</text>
<text text-anchor="start" x="25" y="-1547.23" font-family="Courier,monospace" font-size="11.00">BaseValidator</text>
</a>
</g>
<!-- \\picoMapper\\Validators\\NumericValidator&#45;&gt;\\picoMapper\\BaseValidator -->
<g id="edge6" class="edge"><title>\\picoMapper\\Validators\\NumericValidator&#45;&gt;\\picoMapper\\BaseValidator</title>
<path fill="none" stroke="black" d="M242.383,-1846.03C226.262,-1842.04 209.856,-1835.54 197,-1825 118.948,-1761.03 85.6067,-1638.38 74.0952,-1583.16"/>
<polygon fill="none" stroke="black" points="77.4677,-1582.18 72.0772,-1573.05 70.6032,-1583.55 77.4677,-1582.18"/>
</g>
<!-- \\picoMapper\\Validators\\LessThanOrEqualValidator -->
<g id="node4" class="node"><title>\\picoMapper\\Validators\\LessThanOrEqualValidator</title>
<a xlink:href="db_validators_lessThanOrEqual.html" xlink:title="LessThanOrEqualValidator" target="_parent">
<polygon fill="none" stroke="black" points="394,-1816 216,-1816 216,-1780 394,-1780 394,-1816"/>
<text text-anchor="middle" x="305" y="-1795.1" font-family="Courier,monospace" font-size="11.00">LessThanOrEqualValidator</text>
</a>
</g>
<!-- \\picoMapper\\Validators\\LessThanOrEqualValidator&#45;&gt;\\picoMapper\\BaseValidator -->
<g id="edge8" class="edge"><title>\\picoMapper\\Validators\\LessThanOrEqualValidator&#45;&gt;\\picoMapper\\BaseValidator</title>
<path fill="none" stroke="black" d="M215.436,-1781.79C208.896,-1778.78 202.657,-1775.22 197,-1771 131.523,-1722.21 93.3319,-1629.16 77.5548,-1582.75"/>
<polygon fill="none" stroke="black" points="80.8149,-1581.46 74.3576,-1573.06 74.1674,-1583.66 80.8149,-1581.46"/>
</g>
<!-- \\picoMapper\\Validators\\MaxLengthValidator -->
<g id="node5" class="node"><title>\\picoMapper\\Validators\\MaxLengthValidator</title>
<a xlink:href="db_validators_maxLength.html" xlink:title="MaxLengthValidator" target="_parent">
<polygon fill="none" stroke="black" points="374,-1762 236,-1762 236,-1726 374,-1726 374,-1762"/>
<text text-anchor="middle" x="305" y="-1741.1" font-family="Courier,monospace" font-size="11.00">MaxLengthValidator</text>
</a>
</g>
<!-- \\picoMapper\\Validators\\MaxLengthValidator&#45;&gt;\\picoMapper\\BaseValidator -->
<g id="edge10" class="edge"><title>\\picoMapper\\Validators\\MaxLengthValidator&#45;&gt;\\picoMapper\\BaseValidator</title>
<path fill="none" stroke="black" d="M235.939,-1733.91C222.346,-1729.99 208.689,-1724.55 197,-1717 143.795,-1682.63 103.053,-1618.52 82.9192,-1582.1"/>
<polygon fill="none" stroke="black" points="85.8564,-1580.18 78.0212,-1573.05 79.699,-1583.51 85.8564,-1580.18"/>
</g>
<!-- \\picoMapper\\Validators\\GreaterThanOrEqualValidator -->
<g id="node6" class="node"><title>\\picoMapper\\Validators\\GreaterThanOrEqualValidator</title>
<a xlink:href="db_validators_greaterThanOrEqual.html" xlink:title="GreaterThanOrEqualValidator" target="_parent">
<polygon fill="none" stroke="black" points="404,-1708 206,-1708 206,-1672 404,-1672 404,-1708"/>
<text text-anchor="middle" x="305" y="-1687.1" font-family="Courier,monospace" font-size="11.00">GreaterThanOrEqualValidator</text>
</a>
</g>
<!-- \\picoMapper\\Validators\\GreaterThanOrEqualValidator&#45;&gt;\\picoMapper\\BaseValidator -->
<g id="edge12" class="edge"><title>\\picoMapper\\Validators\\GreaterThanOrEqualValidator&#45;&gt;\\picoMapper\\BaseValidator</title>
<path fill="none" stroke="black" d="M217.938,-1671.99C210.699,-1669.37 203.624,-1666.39 197,-1663 155.714,-1641.88 116.187,-1605.15 92.2527,-1580.46"/>
<polygon fill="none" stroke="black" points="94.7763,-1578.04 85.3409,-1573.22 89.7118,-1582.87 94.7763,-1578.04"/>
</g>
<!-- \\picoMapper\\Validators\\DatetimeValidator -->
<g id="node7" class="node"><title>\\picoMapper\\Validators\\DatetimeValidator</title>
<a xlink:href="db_validators_datetime.html" xlink:title="DatetimeValidator" target="_parent">
<polygon fill="none" stroke="black" points="370,-1654 240,-1654 240,-1618 370,-1618 370,-1654"/>
<text text-anchor="middle" x="305" y="-1633.1" font-family="Courier,monospace" font-size="11.00">DatetimeValidator</text>
</a>
</g>
<!-- \\picoMapper\\Validators\\DatetimeValidator&#45;&gt;\\picoMapper\\BaseValidator -->
<g id="edge14" class="edge"><title>\\picoMapper\\Validators\\DatetimeValidator&#45;&gt;\\picoMapper\\BaseValidator</title>
<path fill="none" stroke="black" d="M239.426,-1621.33C225.314,-1617.69 210.567,-1613.53 197,-1609 169.835,-1599.93 140.332,-1587.66 116.505,-1577.11"/>
<polygon fill="none" stroke="black" points="117.893,-1573.89 107.335,-1573.01 115.035,-1580.28 117.893,-1573.89"/>
</g>
<!-- \\picoMapper\\Validators\\RequiredValidator -->
<g id="node8" class="node"><title>\\picoMapper\\Validators\\RequiredValidator</title>
<a xlink:href="db_validators_required.html" xlink:title="RequiredValidator" target="_parent">
<polygon fill="none" stroke="black" points="370,-1600 240,-1600 240,-1564 370,-1564 370,-1600"/>
<text text-anchor="middle" x="305" y="-1579.1" font-family="Courier,monospace" font-size="11.00">RequiredValidator</text>
</a>
</g>
<!-- \\picoMapper\\Validators\\RequiredValidator&#45;&gt;\\picoMapper\\BaseValidator -->
<g id="edge16" class="edge"><title>\\picoMapper\\Validators\\RequiredValidator&#45;&gt;\\picoMapper\\BaseValidator</title>
<path fill="none" stroke="black" d="M239.261,-1574.48C205.641,-1570.63 164.929,-1565.97 131.746,-1562.18"/>
<polygon fill="none" stroke="black" points="132.039,-1558.69 121.706,-1561.03 131.243,-1565.64 132.039,-1558.69"/>
</g>
<!-- \\picoMapper\\Validators\\PostCodeValidator -->
<g id="node9" class="node"><title>\\picoMapper\\Validators\\PostCodeValidator</title>
<a xlink:href="db_validators_postCode.html" xlink:title="PostCodeValidator" target="_parent">
<polygon fill="none" stroke="black" points="370,-1546 240,-1546 240,-1510 370,-1510 370,-1546"/>
<text text-anchor="middle" x="305" y="-1525.1" font-family="Courier,monospace" font-size="11.00">PostCodeValidator</text>
</a>
</g>
<!-- \\picoMapper\\Validators\\PostCodeValidator&#45;&gt;\\picoMapper\\BaseValidator -->
<g id="edge18" class="edge"><title>\\picoMapper\\Validators\\PostCodeValidator&#45;&gt;\\picoMapper\\BaseValidator</title>
<path fill="none" stroke="black" d="M239.261,-1535.52C205.641,-1539.37 164.929,-1544.03 131.746,-1547.82"/>
<polygon fill="none" stroke="black" points="131.243,-1544.36 121.706,-1548.97 132.039,-1551.31 131.243,-1544.36"/>
</g>
<!-- \\picoMapper\\Validators\\UniqueValidator -->
<g id="node10" class="node"><title>\\picoMapper\\Validators\\UniqueValidator</title>
<a xlink:href="db_validators_unique.html" xlink:title="UniqueValidator" target="_parent">
<polygon fill="none" stroke="black" points="364,-1492 246,-1492 246,-1456 364,-1456 364,-1492"/>
<text text-anchor="middle" x="305" y="-1471.1" font-family="Courier,monospace" font-size="11.00">UniqueValidator</text>
</a>
</g>
<!-- \\picoMapper\\Validators\\UniqueValidator&#45;&gt;\\picoMapper\\BaseValidator -->
<g id="edge20" class="edge"><title>\\picoMapper\\Validators\\UniqueValidator&#45;&gt;\\picoMapper\\BaseValidator</title>
<path fill="none" stroke="black" d="M245.953,-1487.02C229.926,-1491.02 212.675,-1495.77 197,-1501 169.835,-1510.07 140.332,-1522.34 116.505,-1532.89"/>
<polygon fill="none" stroke="black" points="115.035,-1529.72 107.335,-1536.99 117.893,-1536.11 115.035,-1529.72"/>
</g>
<!-- \\picoMapper\\Validators\\MinLengthValidator -->
<g id="node11" class="node"><title>\\picoMapper\\Validators\\MinLengthValidator</title>
<a xlink:href="db_validators_minLength.html" xlink:title="MinLengthValidator" target="_parent">
<polygon fill="none" stroke="black" points="374,-1438 236,-1438 236,-1402 374,-1402 374,-1438"/>
<text text-anchor="middle" x="305" y="-1417.1" font-family="Courier,monospace" font-size="11.00">MinLengthValidator</text>
</a>
</g>
<!-- \\picoMapper\\Validators\\MinLengthValidator&#45;&gt;\\picoMapper\\BaseValidator -->
<g id="edge22" class="edge"><title>\\picoMapper\\Validators\\MinLengthValidator&#45;&gt;\\picoMapper\\BaseValidator</title>
<path fill="none" stroke="black" d="M235.883,-1432.29C222.576,-1436.03 209.044,-1440.84 197,-1447 155.714,-1468.12 116.187,-1504.85 92.2527,-1529.54"/>
<polygon fill="none" stroke="black" points="89.7118,-1527.13 85.3409,-1536.78 94.7763,-1531.96 89.7118,-1527.13"/>
</g>
<!-- \\picoMapper\\Validators\\GreaterThanValidator -->
<g id="node12" class="node"><title>\\picoMapper\\Validators\\GreaterThanValidator</title>
<a xlink:href="db_validators_greaterThan.html" xlink:title="GreaterThanValidator" target="_parent">
<polygon fill="none" stroke="black" points="381,-1384 229,-1384 229,-1348 381,-1348 381,-1384"/>
<text text-anchor="middle" x="305" y="-1363.1" font-family="Courier,monospace" font-size="11.00">GreaterThanValidator</text>
</a>
</g>
<!-- \\picoMapper\\Validators\\GreaterThanValidator&#45;&gt;\\picoMapper\\BaseValidator -->
<g id="edge24" class="edge"><title>\\picoMapper\\Validators\\GreaterThanValidator&#45;&gt;\\picoMapper\\BaseValidator</title>
<path fill="none" stroke="black" d="M228.864,-1378.27C217.663,-1381.96 206.659,-1386.76 197,-1393 143.795,-1427.37 103.053,-1491.48 82.9192,-1527.9"/>
<polygon fill="none" stroke="black" points="79.699,-1526.49 78.0212,-1536.95 85.8564,-1529.82 79.699,-1526.49"/>
</g>
<!-- \\picoMapper\\Validators\\LessThanValidator -->
<g id="node13" class="node"><title>\\picoMapper\\Validators\\LessThanValidator</title>
<a xlink:href="db_validators_lessThan.html" xlink:title="LessThanValidator" target="_parent">
<polygon fill="none" stroke="black" points="370,-1330 240,-1330 240,-1294 370,-1294 370,-1330"/>
<text text-anchor="middle" x="305" y="-1309.1" font-family="Courier,monospace" font-size="11.00">LessThanValidator</text>
</a>
</g>
<!-- \\picoMapper\\Validators\\LessThanValidator&#45;&gt;\\picoMapper\\BaseValidator -->
<g id="edge26" class="edge"><title>\\picoMapper\\Validators\\LessThanValidator&#45;&gt;\\picoMapper\\BaseValidator</title>
<path fill="none" stroke="black" d="M239.347,-1319.71C224.404,-1323.74 209.32,-1329.82 197,-1339 131.523,-1387.79 93.3319,-1480.84 77.5548,-1527.25"/>
<polygon fill="none" stroke="black" points="74.1674,-1526.34 74.3576,-1536.94 80.8149,-1528.54 74.1674,-1526.34"/>
</g>
<!-- \\picoMapper\\Validators\\EmailValidator -->
<g id="node14" class="node"><title>\\picoMapper\\Validators\\EmailValidator</title>
<a xlink:href="db_validators_email.html" xlink:title="EmailValidator" target="_parent">
<polygon fill="none" stroke="black" points="360,-1276 250,-1276 250,-1240 360,-1240 360,-1276"/>
<text text-anchor="middle" x="305" y="-1255.1" font-family="Courier,monospace" font-size="11.00">EmailValidator</text>
</a>
</g>
<!-- \\picoMapper\\Validators\\EmailValidator&#45;&gt;\\picoMapper\\BaseValidator -->
<g id="edge28" class="edge"><title>\\picoMapper\\Validators\\EmailValidator&#45;&gt;\\picoMapper\\BaseValidator</title>
<path fill="none" stroke="black" d="M249.382,-1262.38C231.106,-1266.15 211.724,-1272.93 197,-1285 118.948,-1348.97 85.6067,-1471.62 74.0952,-1526.84"/>
<polygon fill="none" stroke="black" points="70.6032,-1526.45 72.0772,-1536.95 77.4677,-1527.82 70.6032,-1526.45"/>
</g>
<!-- \\picoMapper\\MetadataParser -->
<g id="node15" class="node"><title>\\picoMapper\\MetadataParser</title>
<a xlink:href="db_metadata_parser.html" xlink:title="MetadataParser" target="_parent">
<polygon fill="none" stroke="black" points="360,-1222 250,-1222 250,-1186 360,-1186 360,-1222"/>
<text text-anchor="middle" x="305" y="-1201.1" font-family="Courier,monospace" font-size="11.00">MetadataParser</text>
</a>
</g>
<!-- \\picoMapper\\MetadataException -->
<g id="node16" class="node"><title>\\picoMapper\\MetadataException</title>
<a xlink:href="db_metadata.html" xlink:title="MetadataException" target="_parent">
<polygon fill="none" stroke="black" points="370,-466 240,-466 240,-430 370,-430 370,-466"/>
<text text-anchor="middle" x="305" y="-445.1" font-family="Courier,monospace" font-size="11.00">MetadataException</text>
</a>
</g>
<!-- \\Exception -->
<g id="node40" class="node"><title>\\Exception</title>
<ellipse fill="none" stroke="black" cx="69" cy="-18" rx="63.9292" ry="18"/>
<text text-anchor="middle" x="69" y="-13.9" font-family="Times Roman,serif" font-size="14.00" fill="gray">\Exception</text>
</g>
<!-- \\picoMapper\\MetadataException&#45;&gt;\\Exception -->
<g id="edge4" class="edge"><title>\\picoMapper\\MetadataException&#45;&gt;\\Exception</title>
<path fill="none" stroke="black" d="M239.458,-444.03C223.62,-440.01 208.086,-432.993 197,-421 80.4469,-294.912 244.018,-170.988 133,-40 131.488,-38.2158 129.824,-36.576 128.041,-35.069"/>
<polygon fill="none" stroke="black" points="129.793,-32.0276 119.562,-29.2759 125.844,-37.8073 129.793,-32.0276"/>
</g>
<!-- \\picoMapper\\Metadata -->
<g id="node17" class="node"><title>\\picoMapper\\Metadata</title>
<a xlink:href="db_metadata.html" xlink:title="Metadata" target="_parent">
<polygon fill="none" stroke="black" points="340,-1114 270,-1114 270,-1078 340,-1078 340,-1114"/>
<text text-anchor="middle" x="305" y="-1093.1" font-family="Courier,monospace" font-size="11.00">Metadata</text>
</a>
</g>
<!-- \\picoMapper\\CollectionProxy -->
<g id="node18" class="node"><title>\\picoMapper\\CollectionProxy</title>
<a xlink:href="db_collection_proxy.html" xlink:title="CollectionProxy" target="_parent">
<polygon fill="none" stroke="black" points="364,-1060 246,-1060 246,-1024 364,-1024 364,-1060"/>
<text text-anchor="middle" x="305" y="-1039.1" font-family="Courier,monospace" font-size="11.00">CollectionProxy</text>
</a>
</g>
<!-- \\picoMapper\\Migration -->
<g id="node19" class="node"><title>\\picoMapper\\Migration</title>
<a xlink:href="db_migration.html" xlink:title="«abstract»&lt;br/&gt;Migration" target="_parent">
<polygon fill="none" stroke="black" points="347,-1006 263,-1006 263,-970 347,-970 347,-1006"/>
<text text-anchor="start" x="271" y="-993.433" font-family="Courier,monospace" font-size="11.00">«abstract»</text>
<text text-anchor="start" x="274.5" y="-980.233" font-family="Courier,monospace" font-size="11.00">Migration</text>
</a>
</g>
<!-- \\picoMapper\\BaseBuilder -->
<g id="node20" class="node"><title>\\picoMapper\\BaseBuilder</title>
<a xlink:href="db_base_builder.html" xlink:title="«abstract»&lt;br/&gt;BaseBuilder" target="_parent">
<polygon fill="none" stroke="black" points="115,-952 23,-952 23,-916 115,-916 115,-952"/>
<text text-anchor="start" x="35" y="-939.433" font-family="Courier,monospace" font-size="11.00">«abstract»</text>
<text text-anchor="start" x="31.5" y="-926.233" font-family="Courier,monospace" font-size="11.00">BaseBuilder</text>
</a>
</g>
<!-- \\picoMapper\\DatabaseException -->
<g id="node21" class="node"><title>\\picoMapper\\DatabaseException</title>
<a xlink:href="db_database.html" xlink:title="DatabaseException" target="_parent">
<polygon fill="none" stroke="black" points="370,-412 240,-412 240,-376 370,-376 370,-412"/>
<text text-anchor="middle" x="305" y="-391.1" font-family="Courier,monospace" font-size="11.00">DatabaseException</text>
</a>
</g>
<!-- \\picoMapper\\DatabaseException&#45;&gt;\\Exception -->
<g id="edge30" class="edge"><title>\\picoMapper\\DatabaseException&#45;&gt;\\Exception</title>
<path fill="none" stroke="black" d="M239.392,-389.756C223.65,-385.726 208.179,-378.773 197,-367 95.0258,-259.612 230.257,-151.678 133,-40 131.433,-38.2002 129.711,-36.5476 127.87,-35.03"/>
<polygon fill="none" stroke="black" points="129.396,-31.8412 119.135,-29.2043 125.512,-37.6648 129.396,-31.8412"/>
</g>
<!-- \\picoMapper\\Database -->
<g id="node22" class="node"><title>\\picoMapper\\Database</title>
<a xlink:href="db_database.html" xlink:title="Database" target="_parent">
<polygon fill="none" stroke="black" points="340,-898 270,-898 270,-862 340,-862 340,-898"/>
<text text-anchor="middle" x="305" y="-877.1" font-family="Courier,monospace" font-size="11.00">Database</text>
</a>
</g>
<!-- \\picoMapper\\Query -->
<g id="node23" class="node"><title>\\picoMapper\\Query</title>
<a xlink:href="db_query.html" xlink:title="Query" target="_parent">
<polygon fill="none" stroke="black" points="332,-844 278,-844 278,-808 332,-808 332,-844"/>
<text text-anchor="middle" x="305" y="-823.1" font-family="Courier,monospace" font-size="11.00">Query</text>
</a>
</g>
<!-- \\picoMapper\\ModelException -->
<g id="node24" class="node"><title>\\picoMapper\\ModelException</title>
<a xlink:href="db_model.html" xlink:title="ModelException" target="_parent">
<polygon fill="none" stroke="black" points="360,-358 250,-358 250,-322 360,-322 360,-358"/>
<text text-anchor="middle" x="305" y="-337.1" font-family="Courier,monospace" font-size="11.00">ModelException</text>
</a>
</g>
<!-- \\picoMapper\\ModelException&#45;&gt;\\Exception -->
<g id="edge32" class="edge"><title>\\picoMapper\\ModelException&#45;&gt;\\Exception</title>
<path fill="none" stroke="black" d="M249.236,-337.583C230.402,-334.04 210.701,-326.904 197,-313 109.529,-224.233 216.569,-132.45 133,-40 131.4,-38.2296 129.65,-36.6015 127.786,-35.1045"/>
<polygon fill="none" stroke="black" points="129.262,-31.888 118.977,-29.3444 125.431,-37.7466 129.262,-31.888"/>
</g>
<!-- \\picoMapper\\Model -->
<g id="node25" class="node"><title>\\picoMapper\\Model</title>
<a xlink:href="db_model.html" xlink:title="Model" target="_parent">
<polygon fill="none" stroke="black" points="332,-736 278,-736 278,-700 332,-700 332,-736"/>
<text text-anchor="middle" x="305" y="-715.1" font-family="Courier,monospace" font-size="11.00">Model</text>
</a>
</g>
<!-- \\picoMapper\\ModelProxy -->
<g id="node26" class="node"><title>\\picoMapper\\ModelProxy</title>
<a xlink:href="db_model_proxy.html" xlink:title="ModelProxy" target="_parent">
<polygon fill="none" stroke="black" points="347,-682 263,-682 263,-646 347,-646 347,-682"/>
<text text-anchor="middle" x="305" y="-661.1" font-family="Courier,monospace" font-size="11.00">ModelProxy</text>
</a>
</g>
<!-- \\picoMapper\\MetadataStorage -->
<g id="node27" class="node"><title>\\picoMapper\\MetadataStorage</title>
<a xlink:href="db_metadata_storage.html" xlink:title="MetadataStorage" target="_parent">
<polygon fill="none" stroke="black" points="364,-628 246,-628 246,-592 364,-592 364,-628"/>
<text text-anchor="middle" x="305" y="-607.1" font-family="Courier,monospace" font-size="11.00">MetadataStorage</text>
</a>
</g>
<!-- \\picoMapper\\Collection -->
<g id="node28" class="node"><title>\\picoMapper\\Collection</title>
<a xlink:href="db_collection.html" xlink:title="Collection" target="_parent">
<polygon fill="none" stroke="black" points="347,-574 263,-574 263,-538 347,-538 347,-574"/>
<text text-anchor="middle" x="305" y="-553.1" font-family="Courier,monospace" font-size="11.00">Collection</text>
</a>
</g>
<!-- \\picoMapper\\Persistence -->
<g id="node29" class="node"><title>\\picoMapper\\Persistence</title>
<a xlink:href="db_persistence.html" xlink:title="Persistence" target="_parent">
<polygon fill="none" stroke="black" points="350,-520 260,-520 260,-484 350,-484 350,-520"/>
<text text-anchor="middle" x="305" y="-499.1" font-family="Courier,monospace" font-size="11.00">Persistence</text>
</a>
</g>
<!-- \\picoMapper\\SqliteBuilder -->
<g id="node30" class="node"><title>\\picoMapper\\SqliteBuilder</title>
<a xlink:href="db_builders_sqlite.html" xlink:title="SqliteBuilder" target="_parent">
<polygon fill="none" stroke="black" points="357,-790 253,-790 253,-754 357,-754 357,-790"/>
<text text-anchor="middle" x="305" y="-769.1" font-family="Courier,monospace" font-size="11.00">SqliteBuilder</text>
</a>
</g>
<!-- \\picoMapper\\SqliteBuilder&#45;&gt;\\picoMapper\\BaseBuilder -->
<g id="edge34" class="edge"><title>\\picoMapper\\SqliteBuilder&#45;&gt;\\picoMapper\\BaseBuilder</title>
<path fill="none" stroke="black" d="M252.911,-776.383C233.823,-780.095 212.999,-786.832 197,-799 151.06,-833.94 177.394,-875.114 133,-912 130.297,-914.246 127.353,-916.267 124.26,-918.085"/>
<polygon fill="none" stroke="black" points="122.545,-915.031 115.227,-922.692 125.725,-921.266 122.545,-915.031"/>
</g>
<!-- \\picoMapper\\MysqlBuilder -->
<g id="node31" class="node"><title>\\picoMapper\\MysqlBuilder</title>
<a xlink:href="db_builders_mysql.html" xlink:title="MysqlBuilder" target="_parent">
<polygon fill="none" stroke="black" points="354,-1168 256,-1168 256,-1132 354,-1132 354,-1168"/>
<text text-anchor="middle" x="305" y="-1147.1" font-family="Courier,monospace" font-size="11.00">MysqlBuilder</text>
</a>
</g>
<!-- \\picoMapper\\MysqlBuilder&#45;&gt;\\picoMapper\\BaseBuilder -->
<g id="edge36" class="edge"><title>\\picoMapper\\MysqlBuilder&#45;&gt;\\picoMapper\\BaseBuilder</title>
<path fill="none" stroke="black" d="M255.871,-1145.41C236.203,-1141.7 214.185,-1135.02 197,-1123 137.619,-1081.48 97.7658,-1002.85 79.8371,-961.31"/>
<polygon fill="none" stroke="black" points="83.0541,-959.931 75.9491,-952.071 76.6021,-962.646 83.0541,-959.931"/>
</g>
<!-- \\picoMapper\\PostgresBuilder -->
<g id="node32" class="node"><title>\\picoMapper\\PostgresBuilder</title>
<a xlink:href="db_builders_postgres.html" xlink:title="PostgresBuilder" target="_parent">
<polygon fill="none" stroke="black" points="364,-952 246,-952 246,-916 364,-916 364,-952"/>
<text text-anchor="middle" x="305" y="-931.1" font-family="Courier,monospace" font-size="11.00">PostgresBuilder</text>
</a>
</g>
<!-- \\picoMapper\\PostgresBuilder&#45;&gt;\\picoMapper\\BaseBuilder -->
<g id="edge38" class="edge"><title>\\picoMapper\\PostgresBuilder&#45;&gt;\\picoMapper\\BaseBuilder</title>
<path fill="none" stroke="black" d="M245.752,-934C208.968,-934 161.957,-934 125.666,-934"/>
<polygon fill="none" stroke="black" points="125.252,-930.5 115.252,-934 125.252,-937.5 125.252,-930.5"/>
</g>
<!-- \\picoMapper\\ResultSet -->
<g id="node33" class="node"><title>\\picoMapper\\ResultSet</title>
<a xlink:href="db_resultset.html" xlink:title="ResultSet" target="_parent">
<polygon fill="none" stroke="black" points="343,-304 267,-304 267,-268 343,-268 343,-304"/>
<text text-anchor="middle" x="305" y="-283.1" font-family="Courier,monospace" font-size="11.00">ResultSet</text>
</a>
</g>
<!-- \\picoMapper\\Schema -->
<g id="node34" class="node"><title>\\picoMapper\\Schema</title>
<a xlink:href="db_schema.html" xlink:title="Schema" target="_parent">
<polygon fill="none" stroke="black" points="333,-250 277,-250 277,-214 333,-214 333,-250"/>
<text text-anchor="middle" x="305" y="-229.1" font-family="Courier,monospace" font-size="11.00">Schema</text>
</a>
</g>
<!-- \\picoMapper\\ValidatorException -->
<g id="node35" class="node"><title>\\picoMapper\\ValidatorException</title>
<a xlink:href="db_validator.html" xlink:title="ValidatorException" target="_parent">
<polygon fill="none" stroke="black" points="374,-196 236,-196 236,-160 374,-160 374,-196"/>
<text text-anchor="middle" x="305" y="-175.1" font-family="Courier,monospace" font-size="11.00">ValidatorException</text>
</a>
</g>
<!-- \\picoMapper\\ValidatorException&#45;&gt;\\Exception -->
<g id="edge40" class="edge"><title>\\picoMapper\\ValidatorException&#45;&gt;\\Exception</title>
<path fill="none" stroke="black" d="M235.885,-169.444C222.071,-165.424 208.34,-159.556 197,-151 151.542,-116.701 176.94,-76.2236 133,-40 130.748,-38.1432 128.33,-36.4397 125.8,-34.877"/>
<polygon fill="none" stroke="black" points="127.312,-31.7166 116.842,-30.0894 124.012,-37.8901 127.312,-31.7166"/>
</g>
<!-- \\picoMapper\\Validator -->
<g id="node37" class="node"><title>\\picoMapper\\Validator</title>
<a xlink:href="db_validator.html" xlink:title="Validator" target="_parent">
<polygon fill="none" stroke="black" points="343,-142 267,-142 267,-106 343,-106 343,-142"/>
<text text-anchor="middle" x="305" y="-121.1" font-family="Courier,monospace" font-size="11.00">Validator</text>
</a>
</g>
<!-- \\picoMapper\\BuilderFactory -->
<g id="node38" class="node"><title>\\picoMapper\\BuilderFactory</title>
<a xlink:href="db_builder_factory.html" xlink:title="BuilderFactory" target="_parent">
<polygon fill="none" stroke="black" points="360,-88 250,-88 250,-52 360,-52 360,-88"/>
<text text-anchor="middle" x="305" y="-67.1" font-family="Courier,monospace" font-size="11.00">BuilderFactory</text>
</a>
</g>
</g>
</svg>
