<?xml version="1.0" encoding="UTF-8" standalone="no"?>
<!DOCTYPE svg PUBLIC "-//W3C//DTD SVG 1.0//EN"
 "http://www.w3.org/TR/2001/REC-SVG-20010904/DTD/svg10.dtd" [
 <!ATTLIST svg xmlns:xlink CDATA #FIXED "http://www.w3.org/1999/xlink">
]>
<!-- Generated by Graphviz version 2.20.2 (Tue Mar &#160;2 21:46:26 UTC 2010)
 -->
<!-- Title: G Pages: 1 -->
<svg width="431pt" height="1954pt"
 viewBox="0.00 0.00 431.00 1954.00" xmlns="http://www.w3.org/2000/svg" xmlns:xlink="http://www.w3.org/1999/xlink">
<g id="graph0" class="graph" transform="scale(1 1) rotate(0) translate(4 1950)">
<title>G</title>
<polygon style="fill:white;stroke:white;" points="-4,4 -4,-1950 427,-1950 427,4 -4,4"/>
<g id="cluster2" class="cluster"><title>cluster_picoMapper</title>
<polyline style="fill:none;stroke:gray;" points="20,-52 403,-52 "/>
<path style="fill:none;stroke:gray;" d="M403,-52C409,-52 415,-58 415,-64"/>
<polyline style="fill:none;stroke:gray;" points="415,-64 415,-1926 "/>
<path style="fill:none;stroke:gray;" d="M415,-1926C415,-1932 409,-1938 403,-1938"/>
<polyline style="fill:none;stroke:gray;" points="403,-1938 20,-1938 "/>
<path style="fill:none;stroke:gray;" d="M20,-1938C14,-1938 8,-1932 8,-1926"/>
<polyline style="fill:none;stroke:gray;" points="8,-1926 8,-64 "/>
<path style="fill:none;stroke:gray;" d="M8,-64C8,-58 14,-52 20,-52"/>
<text text-anchor="middle" x="211" y="-1924.1" style="font-family:Times New Roman;font-size:11.00;fill:gray;">picoMapper</text>
</g>
<g id="cluster3" class="cluster"><title>cluster_picoMapper\Validators</title>
<polyline style="fill:none;stroke:gray;" points="205,-1240 395,-1240 "/>
<path style="fill:none;stroke:gray;" d="M395,-1240C401,-1240 407,-1246 407,-1252"/>
<polyline style="fill:none;stroke:gray;" points="407,-1252 407,-1896 "/>
<path style="fill:none;stroke:gray;" d="M407,-1896C407,-1902 401,-1908 395,-1908"/>
<polyline style="fill:none;stroke:gray;" points="395,-1908 205,-1908 "/>
<path style="fill:none;stroke:gray;" d="M205,-1908C199,-1908 193,-1902 193,-1896"/>
<polyline style="fill:none;stroke:gray;" points="193,-1896 193,-1252 "/>
<path style="fill:none;stroke:gray;" d="M193,-1252C193,-1246 199,-1240 205,-1240"/>
<text text-anchor="middle" x="300" y="-1894.1" style="font-family:Times New Roman;font-size:11.00;fill:gray;">Validators</text>
</g>
<!-- \\picoMapper\\Validators\\LessThanValidator -->
<g id="node3" class="node"><title>\\picoMapper\\Validators\\LessThanValidator</title>
<a xlink:href="db_validators_lessThan.html" xlink:title="LessThanValidator" target="_parent">
<polygon style="fill:none;stroke:black;" points="365,-1878 235,-1878 235,-1842 365,-1842 365,-1878"/>
<text text-anchor="middle" x="300" y="-1857.1" style="font-family:Courier;font-size:11.00;">LessThanValidator</text>
</a>
</g>
<!-- \\picoMapper\\BaseValidator -->
<g id="node22" class="node"><title>\\picoMapper\\BaseValidator</title>
<a xlink:href="db_validator.html" xlink:title="«abstract»&lt;br/&gt;BaseValidator" target="_parent">
<polygon style="fill:none;stroke:black;" points="120,-1581 16,-1581 16,-1545 120,-1545 120,-1581"/>
<text text-anchor="start" x="34" y="-1567.93" style="font-family:Courier;font-size:11.00;">«abstract»</text>
<text text-anchor="start" x="24" y="-1554.73" style="font-family:Courier;font-size:11.00;">BaseValidator</text>
</a>
</g>
<!-- \\picoMapper\\Validators\\LessThanValidator&#45;&gt;\\picoMapper\\BaseValidator -->
<g id="edge18" class="edge"><title>\\picoMapper\\Validators\\LessThanValidator&#45;&gt;\\picoMapper\\BaseValidator</title>
<path style="fill:none;stroke:black;" d="M234,-1853C220,-1849 205,-1843 193,-1833 116,-1768 84,-1646 73,-1591"/>
<polygon style="fill:none;stroke:black;" points="76.3933,-1590.12 71,-1581 69.5292,-1591.49 76.3933,-1590.12"/>
</g>
<!-- \\picoMapper\\Validators\\NumericValidator -->
<g id="node4" class="node"><title>\\picoMapper\\Validators\\NumericValidator</title>
<a xlink:href="db_validators_numeric.html" xlink:title="NumericValidator" target="_parent">
<polygon style="fill:none;stroke:black;" points="362,-1824 238,-1824 238,-1788 362,-1788 362,-1824"/>
<text text-anchor="middle" x="300" y="-1803.1" style="font-family:Courier;font-size:11.00;">NumericValidator</text>
</a>
</g>
<!-- \\picoMapper\\Validators\\NumericValidator&#45;&gt;\\picoMapper\\BaseValidator -->
<g id="edge20" class="edge"><title>\\picoMapper\\Validators\\NumericValidator&#45;&gt;\\picoMapper\\BaseValidator</title>
<path style="fill:none;stroke:black;" d="M238,-1799C222,-1795 206,-1789 193,-1779 128,-1730 91,-1637 76,-1591"/>
<polygon style="fill:none;stroke:black;" points="79.2259,-1589.57 73,-1581 72.5212,-1591.58 79.2259,-1589.57"/>
</g>
<!-- \\picoMapper\\Validators\\MaxLengthValidator -->
<g id="node5" class="node"><title>\\picoMapper\\Validators\\MaxLengthValidator</title>
<a xlink:href="db_validators_maxLength.html" xlink:title="MaxLengthValidator" target="_parent">
<polygon style="fill:none;stroke:black;" points="369,-1770 231,-1770 231,-1734 369,-1734 369,-1770"/>
<text text-anchor="middle" x="300" y="-1749.1" style="font-family:Courier;font-size:11.00;">MaxLengthValidator</text>
</a>
</g>
<!-- \\picoMapper\\Validators\\MaxLengthValidator&#45;&gt;\\picoMapper\\BaseValidator -->
<g id="edge22" class="edge"><title>\\picoMapper\\Validators\\MaxLengthValidator&#45;&gt;\\picoMapper\\BaseValidator</title>
<path style="fill:none;stroke:black;" d="M231,-1741C218,-1737 204,-1732 193,-1725 140,-1690 101,-1627 82,-1590"/>
<polygon style="fill:none;stroke:black;" points="84.916,-1588.04 77,-1581 78.7969,-1591.44 84.916,-1588.04"/>
</g>
<!-- \\picoMapper\\Validators\\PostCodeValidator -->
<g id="node6" class="node"><title>\\picoMapper\\Validators\\PostCodeValidator</title>
<a xlink:href="db_validators_postCode.html" xlink:title="PostCodeValidator" target="_parent">
<polygon style="fill:none;stroke:black;" points="365,-1716 235,-1716 235,-1680 365,-1680 365,-1716"/>
<text text-anchor="middle" x="300" y="-1695.1" style="font-family:Courier;font-size:11.00;">PostCodeValidator</text>
</a>
</g>
<!-- \\picoMapper\\Validators\\PostCodeValidator&#45;&gt;\\picoMapper\\BaseValidator -->
<g id="edge24" class="edge"><title>\\picoMapper\\Validators\\PostCodeValidator&#45;&gt;\\picoMapper\\BaseValidator</title>
<path style="fill:none;stroke:black;" d="M234,-1686C220,-1682 206,-1677 193,-1671 152,-1650 114,-1613 91,-1589"/>
<polygon style="fill:none;stroke:black;" points="93.2191,-1586.22 84,-1581 87.9511,-1590.83 93.2191,-1586.22"/>
</g>
<!-- \\picoMapper\\Validators\\LessThanOrEqualValidator -->
<g id="node7" class="node"><title>\\picoMapper\\Validators\\LessThanOrEqualValidator</title>
<a xlink:href="db_validators_lessThanOrEqual.html" xlink:title="LessThanOrEqualValidator" target="_parent">
<polygon style="fill:none;stroke:black;" points="389,-1662 211,-1662 211,-1626 389,-1626 389,-1662"/>
<text text-anchor="middle" x="300" y="-1641.1" style="font-family:Courier;font-size:11.00;">LessThanOrEqualValidator</text>
</a>
</g>
<!-- \\picoMapper\\Validators\\LessThanOrEqualValidator&#45;&gt;\\picoMapper\\BaseValidator -->
<g id="edge26" class="edge"><title>\\picoMapper\\Validators\\LessThanOrEqualValidator&#45;&gt;\\picoMapper\\BaseValidator</title>
<path style="fill:none;stroke:black;" d="M223,-1626C213,-1623 203,-1620 193,-1617 167,-1608 138,-1596 115,-1585"/>
<polygon style="fill:none;stroke:black;" points="116.56,-1581.86 106,-1581 113.717,-1588.26 116.56,-1581.86"/>
</g>
<!-- \\picoMapper\\Validators\\MinLengthValidator -->
<g id="node8" class="node"><title>\\picoMapper\\Validators\\MinLengthValidator</title>
<a xlink:href="db_validators_minLength.html" xlink:title="MinLengthValidator" target="_parent">
<polygon style="fill:none;stroke:black;" points="369,-1608 231,-1608 231,-1572 369,-1572 369,-1608"/>
<text text-anchor="middle" x="300" y="-1587.1" style="font-family:Courier;font-size:11.00;">MinLengthValidator</text>
</a>
</g>
<!-- \\picoMapper\\Validators\\MinLengthValidator&#45;&gt;\\picoMapper\\BaseValidator -->
<g id="edge28" class="edge"><title>\\picoMapper\\Validators\\MinLengthValidator&#45;&gt;\\picoMapper\\BaseValidator</title>
<path style="fill:none;stroke:black;" d="M231,-1582C199,-1578 161,-1574 130,-1570"/>
<polygon style="fill:none;stroke:black;" points="130.299,-1566.51 120,-1569 129.602,-1573.48 130.299,-1566.51"/>
</g>
<!-- \\picoMapper\\Validators\\GreaterThanValidator -->
<g id="node9" class="node"><title>\\picoMapper\\Validators\\GreaterThanValidator</title>
<a xlink:href="db_validators_greaterThan.html" xlink:title="GreaterThanValidator" target="_parent">
<polygon style="fill:none;stroke:black;" points="375,-1554 225,-1554 225,-1518 375,-1518 375,-1554"/>
<text text-anchor="middle" x="300" y="-1533.1" style="font-family:Courier;font-size:11.00;">GreaterThanValidator</text>
</a>
</g>
<!-- \\picoMapper\\Validators\\GreaterThanValidator&#45;&gt;\\picoMapper\\BaseValidator -->
<g id="edge30" class="edge"><title>\\picoMapper\\Validators\\GreaterThanValidator&#45;&gt;\\picoMapper\\BaseValidator</title>
<path style="fill:none;stroke:black;" d="M224,-1545C194,-1549 159,-1553 130,-1556"/>
<polygon style="fill:none;stroke:black;" points="129.602,-1552.52 120,-1557 130.299,-1559.49 129.602,-1552.52"/>
</g>
<!-- \\picoMapper\\Validators\\UniqueValidator -->
<g id="node10" class="node"><title>\\picoMapper\\Validators\\UniqueValidator</title>
<a xlink:href="db_validators_unique.html" xlink:title="UniqueValidator" target="_parent">
<polygon style="fill:none;stroke:black;" points="358,-1500 242,-1500 242,-1464 358,-1464 358,-1500"/>
<text text-anchor="middle" x="300" y="-1479.1" style="font-family:Courier;font-size:11.00;">UniqueValidator</text>
</a>
</g>
<!-- \\picoMapper\\Validators\\UniqueValidator&#45;&gt;\\picoMapper\\BaseValidator -->
<g id="edge32" class="edge"><title>\\picoMapper\\Validators\\UniqueValidator&#45;&gt;\\picoMapper\\BaseValidator</title>
<path style="fill:none;stroke:black;" d="M241,-1495C225,-1499 208,-1504 193,-1509 166,-1518 137,-1530 114,-1541"/>
<polygon style="fill:none;stroke:black;" points="112.717,-1537.74 105,-1545 115.56,-1544.14 112.717,-1537.74"/>
</g>
<!-- \\picoMapper\\Validators\\RequiredValidator -->
<g id="node11" class="node"><title>\\picoMapper\\Validators\\RequiredValidator</title>
<a xlink:href="db_validators_required.html" xlink:title="RequiredValidator" target="_parent">
<polygon style="fill:none;stroke:black;" points="365,-1446 235,-1446 235,-1410 365,-1410 365,-1446"/>
<text text-anchor="middle" x="300" y="-1425.1" style="font-family:Courier;font-size:11.00;">RequiredValidator</text>
</a>
</g>
<!-- \\picoMapper\\Validators\\RequiredValidator&#45;&gt;\\picoMapper\\BaseValidator -->
<g id="edge34" class="edge"><title>\\picoMapper\\Validators\\RequiredValidator&#45;&gt;\\picoMapper\\BaseValidator</title>
<path style="fill:none;stroke:black;" d="M234,-1439C220,-1443 206,-1448 193,-1455 152,-1476 114,-1512 91,-1538"/>
<polygon style="fill:none;stroke:black;" points="88.5962,-1535.45 84,-1545 93.546,-1540.4 88.5962,-1535.45"/>
</g>
<!-- \\picoMapper\\Validators\\EmailValidator -->
<g id="node12" class="node"><title>\\picoMapper\\Validators\\EmailValidator</title>
<a xlink:href="db_validators_email.html" xlink:title="EmailValidator" target="_parent">
<polygon style="fill:none;stroke:black;" points="355,-1392 245,-1392 245,-1356 355,-1356 355,-1392"/>
<text text-anchor="middle" x="300" y="-1371.1" style="font-family:Courier;font-size:11.00;">EmailValidator</text>
</a>
</g>
<!-- \\picoMapper\\Validators\\EmailValidator&#45;&gt;\\picoMapper\\BaseValidator -->
<g id="edge36" class="edge"><title>\\picoMapper\\Validators\\EmailValidator&#45;&gt;\\picoMapper\\BaseValidator</title>
<path style="fill:none;stroke:black;" d="M244,-1381C227,-1385 208,-1391 193,-1401 140,-1435 101,-1499 82,-1536"/>
<polygon style="fill:none;stroke:black;" points="78.7969,-1534.56 77,-1545 84.916,-1537.96 78.7969,-1534.56"/>
</g>
<!-- \\picoMapper\\Validators\\GreaterThanOrEqualValidator -->
<g id="node13" class="node"><title>\\picoMapper\\Validators\\GreaterThanOrEqualValidator</title>
<a xlink:href="db_validators_greaterThanOrEqual.html" xlink:title="GreaterThanOrEqualValidator" target="_parent">
<polygon style="fill:none;stroke:black;" points="399,-1338 201,-1338 201,-1302 399,-1302 399,-1338"/>
<text text-anchor="middle" x="300" y="-1317.1" style="font-family:Courier;font-size:11.00;">GreaterThanOrEqualValidator</text>
</a>
</g>
<!-- \\picoMapper\\Validators\\GreaterThanOrEqualValidator&#45;&gt;\\picoMapper\\BaseValidator -->
<g id="edge38" class="edge"><title>\\picoMapper\\Validators\\GreaterThanOrEqualValidator&#45;&gt;\\picoMapper\\BaseValidator</title>
<path style="fill:none;stroke:black;" d="M207,-1338C202,-1341 197,-1344 193,-1347 128,-1395 91,-1489 76,-1535"/>
<polygon style="fill:none;stroke:black;" points="72.5212,-1534.42 73,-1545 79.2259,-1536.43 72.5212,-1534.42"/>
</g>
<!-- \\picoMapper\\Validators\\DatetimeValidator -->
<g id="node14" class="node"><title>\\picoMapper\\Validators\\DatetimeValidator</title>
<a xlink:href="db_validators_datetime.html" xlink:title="DatetimeValidator" target="_parent">
<polygon style="fill:none;stroke:black;" points="365,-1284 235,-1284 235,-1248 365,-1248 365,-1284"/>
<text text-anchor="middle" x="300" y="-1263.1" style="font-family:Courier;font-size:11.00;">DatetimeValidator</text>
</a>
</g>
<!-- \\picoMapper\\Validators\\DatetimeValidator&#45;&gt;\\picoMapper\\BaseValidator -->
<g id="edge40" class="edge"><title>\\picoMapper\\Validators\\DatetimeValidator&#45;&gt;\\picoMapper\\BaseValidator</title>
<path style="fill:none;stroke:black;" d="M234,-1272C220,-1277 205,-1283 193,-1293 115,-1357 84,-1479 73,-1535"/>
<polygon style="fill:none;stroke:black;" points="69.5292,-1534.51 71,-1545 76.3933,-1535.88 69.5292,-1534.51"/>
</g>
<!-- \\picoMapper\\Schema -->
<g id="node15" class="node"><title>\\picoMapper\\Schema</title>
<a xlink:href="db_schema.html" xlink:title="Schema" target="_parent">
<polygon style="fill:none;stroke:black;" points="328,-1230 272,-1230 272,-1194 328,-1194 328,-1230"/>
<text text-anchor="middle" x="300" y="-1209.1" style="font-family:Courier;font-size:11.00;">Schema</text>
</a>
</g>
<!-- \\picoMapper\\CollectionProxy -->
<g id="node16" class="node"><title>\\picoMapper\\CollectionProxy</title>
<a xlink:href="db_collection_proxy.html" xlink:title="CollectionProxy" target="_parent">
<polygon style="fill:none;stroke:black;" points="358,-1176 242,-1176 242,-1140 358,-1140 358,-1176"/>
<text text-anchor="middle" x="300" y="-1155.1" style="font-family:Courier;font-size:11.00;">CollectionProxy</text>
</a>
</g>
<!-- \\picoMapper\\BuilderFactory -->
<g id="node17" class="node"><title>\\picoMapper\\BuilderFactory</title>
<a xlink:href="db_builder_factory.html" xlink:title="BuilderFactory" target="_parent">
<polygon style="fill:none;stroke:black;" points="355,-1122 245,-1122 245,-1086 355,-1086 355,-1122"/>
<text text-anchor="middle" x="300" y="-1101.1" style="font-family:Courier;font-size:11.00;">BuilderFactory</text>
</a>
</g>
<!-- \\picoMapper\\PostgresBuilder -->
<g id="node18" class="node"><title>\\picoMapper\\PostgresBuilder</title>
<a xlink:href="db_builders_postgres.html" xlink:title="PostgresBuilder" target="_parent">
<polygon style="fill:none;stroke:black;" points="358,-1068 242,-1068 242,-1032 358,-1032 358,-1068"/>
<text text-anchor="middle" x="300" y="-1047.1" style="font-family:Courier;font-size:11.00;">PostgresBuilder</text>
</a>
</g>
<!-- \\picoMapper\\BaseBuilder -->
<g id="node29" class="node"><title>\\picoMapper\\BaseBuilder</title>
<a xlink:href="db_base_builder.html" xlink:title="«abstract»&lt;br/&gt;BaseBuilder" target="_parent">
<polygon style="fill:none;stroke:black;" points="113,-1014 23,-1014 23,-978 113,-978 113,-1014"/>
<text text-anchor="start" x="34" y="-1000.93" style="font-family:Courier;font-size:11.00;">«abstract»</text>
<text text-anchor="start" x="31" y="-987.733" style="font-family:Courier;font-size:11.00;">BaseBuilder</text>
</a>
</g>
<!-- \\picoMapper\\PostgresBuilder&#45;&gt;\\picoMapper\\BaseBuilder -->
<g id="edge4" class="edge"><title>\\picoMapper\\PostgresBuilder&#45;&gt;\\picoMapper\\BaseBuilder</title>
<path style="fill:none;stroke:black;" d="M241,-1036C205,-1028 159,-1017 123,-1008"/>
<polygon style="fill:none;stroke:black;" points="123.492,-1004.53 113,-1006 122.119,-1011.39 123.492,-1004.53"/>
</g>
<!-- \\picoMapper\\MysqlBuilder -->
<g id="node19" class="node"><title>\\picoMapper\\MysqlBuilder</title>
<a xlink:href="db_builders_mysql.html" xlink:title="MysqlBuilder" target="_parent">
<polygon style="fill:none;stroke:black;" points="348,-1014 252,-1014 252,-978 348,-978 348,-1014"/>
<text text-anchor="middle" x="300" y="-993.1" style="font-family:Courier;font-size:11.00;">MysqlBuilder</text>
</a>
</g>
<!-- \\picoMapper\\MysqlBuilder&#45;&gt;\\picoMapper\\BaseBuilder -->
<g id="edge6" class="edge"><title>\\picoMapper\\MysqlBuilder&#45;&gt;\\picoMapper\\BaseBuilder</title>
<path style="fill:none;stroke:black;" d="M251,-996C213,-996 162,-996 123,-996"/>
<polygon style="fill:none;stroke:black;" points="123,-992.5 113,-996 123,-999.5 123,-992.5"/>
</g>
<!-- \\picoMapper\\SqliteBuilder -->
<g id="node20" class="node"><title>\\picoMapper\\SqliteBuilder</title>
<a xlink:href="db_builders_sqlite.html" xlink:title="SqliteBuilder" target="_parent">
<polygon style="fill:none;stroke:black;" points="352,-960 248,-960 248,-924 352,-924 352,-960"/>
<text text-anchor="middle" x="300" y="-939.1" style="font-family:Courier;font-size:11.00;">SqliteBuilder</text>
</a>
</g>
<!-- \\picoMapper\\SqliteBuilder&#45;&gt;\\picoMapper\\BaseBuilder -->
<g id="edge8" class="edge"><title>\\picoMapper\\SqliteBuilder&#45;&gt;\\picoMapper\\BaseBuilder</title>
<path style="fill:none;stroke:black;" d="M248,-954C211,-962 161,-974 123,-983"/>
<polygon style="fill:none;stroke:black;" points="122.119,-979.607 113,-985 123.492,-986.471 122.119,-979.607"/>
</g>
<!-- \\picoMapper\\ValidatorException -->
<g id="node21" class="node"><title>\\picoMapper\\ValidatorException</title>
<a xlink:href="db_validator.html" xlink:title="ValidatorException" target="_parent">
<polygon style="fill:none;stroke:black;" points="369,-906 231,-906 231,-870 369,-870 369,-906"/>
<text text-anchor="middle" x="300" y="-885.1" style="font-family:Courier;font-size:11.00;">ValidatorException</text>
</a>
</g>
<!-- \\Exception -->
<g id="node43" class="node"><title>\\Exception</title>
<ellipse style="fill:none;stroke:black;" cx="68" cy="-26" rx="61.1496" ry="18"/>
<text text-anchor="middle" x="68" y="-21.9" style="font-family:Times New Roman;font-size:14.00;fill:gray;">\Exception</text>
</g>
<!-- \\picoMapper\\ValidatorException&#45;&gt;\\Exception -->
<g id="edge10" class="edge"><title>\\picoMapper\\ValidatorException&#45;&gt;\\Exception</title>
<path style="fill:none;stroke:black;" d="M231,-884C216,-879 203,-872 193,-861 76,-722 238,-192 129,-48 127,-46 126,-45 124,-43"/>
<polygon style="fill:none;stroke:black;" points="126.1,-40.2 116,-37 121.9,-45.8 126.1,-40.2"/>
</g>
<!-- \\picoMapper\\Validator -->
<g id="node23" class="node"><title>\\picoMapper\\Validator</title>
<a xlink:href="db_validator.html" xlink:title="Validator" target="_parent">
<polygon style="fill:none;stroke:black;" points="338,-852 262,-852 262,-816 338,-816 338,-852"/>
<text text-anchor="middle" x="300" y="-831.1" style="font-family:Courier;font-size:11.00;">Validator</text>
</a>
</g>
<!-- \\picoMapper\\MetadataParser -->
<g id="node24" class="node"><title>\\picoMapper\\MetadataParser</title>
<a xlink:href="db_metadata_parser.html" xlink:title="MetadataParser" target="_parent">
<polygon style="fill:none;stroke:black;" points="355,-798 245,-798 245,-762 355,-762 355,-798"/>
<text text-anchor="middle" x="300" y="-777.1" style="font-family:Courier;font-size:11.00;">MetadataParser</text>
</a>
</g>
<!-- \\picoMapper\\ModelException -->
<g id="node25" class="node"><title>\\picoMapper\\ModelException</title>
<a xlink:href="db_model.html" xlink:title="ModelException" target="_parent">
<polygon style="fill:none;stroke:black;" points="355,-744 245,-744 245,-708 355,-708 355,-744"/>
<text text-anchor="middle" x="300" y="-723.1" style="font-family:Courier;font-size:11.00;">ModelException</text>
</a>
</g>
<!-- \\picoMapper\\ModelException&#45;&gt;\\Exception -->
<g id="edge12" class="edge"><title>\\picoMapper\\ModelException&#45;&gt;\\Exception</title>
<path style="fill:none;stroke:black;" d="M244,-724C225,-721 206,-714 193,-699 98,-588 218,-162 129,-48 127,-46 126,-45 124,-43"/>
<polygon style="fill:none;stroke:black;" points="126.1,-40.2 116,-37 121.9,-45.8 126.1,-40.2"/>
</g>
<!-- \\picoMapper\\Model -->
<g id="node26" class="node"><title>\\picoMapper\\Model</title>
<a xlink:href="db_model.html" xlink:title="Model" target="_parent">
<polygon style="fill:none;stroke:black;" points="327,-690 273,-690 273,-654 327,-654 327,-690"/>
<text text-anchor="middle" x="300" y="-669.1" style="font-family:Courier;font-size:11.00;">Model</text>
</a>
</g>
<!-- \\picoMapper\\Migration -->
<g id="node27" class="node"><title>\\picoMapper\\Migration</title>
<a xlink:href="db_migration.html" xlink:title="«abstract»&lt;br/&gt;Migration" target="_parent">
<polygon style="fill:none;stroke:black;" points="342,-636 258,-636 258,-600 342,-600 342,-636"/>
<text text-anchor="start" x="266" y="-622.933" style="font-family:Courier;font-size:11.00;">«abstract»</text>
<text text-anchor="start" x="269.5" y="-609.733" style="font-family:Courier;font-size:11.00;">Migration</text>
</a>
</g>
<!-- \\picoMapper\\MetadataStorage -->
<g id="node28" class="node"><title>\\picoMapper\\MetadataStorage</title>
<a xlink:href="db_metadata_storage.html" xlink:title="MetadataStorage" target="_parent">
<polygon style="fill:none;stroke:black;" points="358,-582 242,-582 242,-546 358,-546 358,-582"/>
<text text-anchor="middle" x="300" y="-561.1" style="font-family:Courier;font-size:11.00;">MetadataStorage</text>
</a>
</g>
<!-- \\picoMapper\\Collection -->
<g id="node30" class="node"><title>\\picoMapper\\Collection</title>
<a xlink:href="db_collection.html" xlink:title="Collection" target="_parent">
<polygon style="fill:none;stroke:black;" points="342,-528 258,-528 258,-492 342,-492 342,-528"/>
<text text-anchor="middle" x="300" y="-507.1" style="font-family:Courier;font-size:11.00;">Collection</text>
</a>
</g>
<!-- \\picoMapper\\Query -->
<g id="node31" class="node"><title>\\picoMapper\\Query</title>
<a xlink:href="db_query.html" xlink:title="Query" target="_parent">
<polygon style="fill:none;stroke:black;" points="327,-474 273,-474 273,-438 327,-438 327,-474"/>
<text text-anchor="middle" x="300" y="-453.1" style="font-family:Courier;font-size:11.00;">Query</text>
</a>
</g>
<!-- \\picoMapper\\ModelProxy -->
<g id="node32" class="node"><title>\\picoMapper\\ModelProxy</title>
<a xlink:href="db_model_proxy.html" xlink:title="ModelProxy" target="_parent">
<polygon style="fill:none;stroke:black;" points="342,-420 258,-420 258,-384 342,-384 342,-420"/>
<text text-anchor="middle" x="300" y="-399.1" style="font-family:Courier;font-size:11.00;">ModelProxy</text>
</a>
</g>
<!-- \\picoMapper\\MetadataException -->
<g id="node33" class="node"><title>\\picoMapper\\MetadataException</title>
<a xlink:href="db_metadata.html" xlink:title="MetadataException" target="_parent">
<polygon style="fill:none;stroke:black;" points="365,-366 235,-366 235,-330 365,-330 365,-366"/>
<text text-anchor="middle" x="300" y="-345.1" style="font-family:Courier;font-size:11.00;">MetadataException</text>
</a>
</g>
<!-- \\picoMapper\\MetadataException&#45;&gt;\\Exception -->
<g id="edge14" class="edge"><title>\\picoMapper\\MetadataException&#45;&gt;\\Exception</title>
<path style="fill:none;stroke:black;" d="M234,-343C219,-339 204,-332 193,-321 105,-232 211,-141 129,-48 127,-46 126,-45 124,-43"/>
<polygon style="fill:none;stroke:black;" points="125.441,-39.7969 115,-38 122.042,-45.916 125.441,-39.7969"/>
</g>
<!-- \\picoMapper\\Metadata -->
<g id="node34" class="node"><title>\\picoMapper\\Metadata</title>
<a xlink:href="db_metadata.html" xlink:title="Metadata" target="_parent">
<polygon style="fill:none;stroke:black;" points="335,-312 265,-312 265,-276 335,-276 335,-312"/>
<text text-anchor="middle" x="300" y="-291.1" style="font-family:Courier;font-size:11.00;">Metadata</text>
</a>
</g>
<!-- \\picoMapper\\DatabaseException -->
<g id="node35" class="node"><title>\\picoMapper\\DatabaseException</title>
<a xlink:href="db_database.html" xlink:title="DatabaseException" target="_parent">
<polygon style="fill:none;stroke:black;" points="365,-258 235,-258 235,-222 365,-222 365,-258"/>
<text text-anchor="middle" x="300" y="-237.1" style="font-family:Courier;font-size:11.00;">DatabaseException</text>
</a>
</g>
<!-- \\picoMapper\\DatabaseException&#45;&gt;\\Exception -->
<g id="edge16" class="edge"><title>\\picoMapper\\DatabaseException&#45;&gt;\\Exception</title>
<path style="fill:none;stroke:black;" d="M234,-234C219,-230 204,-223 193,-213 134,-160 185,-103 129,-48 127,-46 125,-44 123,-43"/>
<polygon style="fill:none;stroke:black;" points="124.441,-39.7969 114,-38 121.042,-45.916 124.441,-39.7969"/>
</g>
<!-- \\picoMapper\\Database -->
<g id="node36" class="node"><title>\\picoMapper\\Database</title>
<a xlink:href="db_database.html" xlink:title="Database" target="_parent">
<polygon style="fill:none;stroke:black;" points="335,-204 265,-204 265,-168 335,-168 335,-204"/>
<text text-anchor="middle" x="300" y="-183.1" style="font-family:Courier;font-size:11.00;">Database</text>
</a>
</g>
<!-- \\picoMapper\\Persistence -->
<g id="node37" class="node"><title>\\picoMapper\\Persistence</title>
<a xlink:href="db_persistence.html" xlink:title="Persistence" target="_parent">
<polygon style="fill:none;stroke:black;" points="345,-150 255,-150 255,-114 345,-114 345,-150"/>
<text text-anchor="middle" x="300" y="-129.1" style="font-family:Courier;font-size:11.00;">Persistence</text>
</a>
</g>
<!-- \\picoMapper\\ResultSet -->
<g id="node38" class="node"><title>\\picoMapper\\ResultSet</title>
<a xlink:href="db_resultset.html" xlink:title="ResultSet" target="_parent">
<polygon style="fill:none;stroke:black;" points="338,-96 262,-96 262,-60 338,-60 338,-96"/>
<text text-anchor="middle" x="300" y="-75.1" style="font-family:Courier;font-size:11.00;">ResultSet</text>
</a>
</g>
</g>
</svg>
